<?xml version="1.0" encoding="utf-8"?>
<!-- Generator: Adobe Illustrator 25.0.1, SVG Export Plug-In . SVG Version: 6.00 Build 0)  -->
<svg version="1.1" id="Layer_1" xmlns="http://www.w3.org/2000/svg" xmlns:xlink="http://www.w3.org/1999/xlink" x="0px" y="0px"
	 viewBox="0 0 190 186" style="enable-background:new 0 0 190 186;" xml:space="preserve">
<style type="text/css">
	.st0{fill:#55BA5D;}
	.st1{fill:#FFFFFF;}
</style>
<path class="st0" d="M98.1,6.8c-46.2,0-83.7,37.5-83.7,83.7c0,46.3,37.5,83.7,83.7,83.7c46.3,0,83.7-37.5,83.7-83.7
	C181.8,44.3,144.3,6.8,98.1,6.8C98.1,6.8,98.1,6.8,98.1,6.8z"/>
<path class="st1" d="M103.3,78.1c2,0.1,3.6,1.9,3.4,4c-1.2,16.3,5.1,32.7,18.8,48.9c1.3,1.6,1.1,3.9-0.4,5.2
	c-1.6,1.3-3.9,1.1-5.2-0.4C104.9,118,98,99.8,99.3,81.5C99.5,79.5,101.3,78,103.3,78.1z"/>
<path class="st1" d="M99.9,67.6c1.7,1.9,1.7,4.8-0.2,6.5C86,86.9,76.9,109.6,77.5,129.3c0.1,2.6-1.9,4.7-4.5,4.8
	c-2.6,0.1-4.7-1.9-4.8-4.5c-0.7-22.5,9.4-47.5,25.1-62.2C95.2,65.6,98.1,65.7,99.9,67.6L99.9,67.6z"/>
<path class="st1" d="M53.8,103.5c2.6,9.6,6.4,18.4,10.6,24.8c1.7,2.6,1,6-1.6,7.7c-2.6,1.7-6,1-7.7-1.6
	c-12-18.3-20.5-52.1-14.1-76.9c0.8-3,3.8-4.8,6.8-4c3,0.8,4.8,3.8,4,6.8l0,0C48.4,73.1,49.8,89.2,53.8,103.5"/>
<path class="st1" d="M140.1,102.8c-1.6,9.8-1.9,19.4-0.8,26.9c0.4,3-1.7,5.8-4.7,6.3c-3,0.4-5.8-1.7-6.3-4.7
	c-3.2-21.7,3.2-55.9,19.4-75.7c1.9-2.4,5.4-2.7,7.8-0.8c2.4,1.9,2.7,5.4,0.8,7.8l0,0C148,73,142.5,88.2,140.1,102.8"/>
</svg>
